<svg width="800" height="800" viewBox="0 0 800 800" fill="none" xmlns="http://www.w3.org/2000/svg">
  <path d="M400 700C566.667 700 700 566.667 700 400C700 233.333 566.667 100 400 100C233.333 100 100 233.333 100 400C100 566.667 233.333 700 400 700Z" fill="white"/>
  <path d="M500 350C500 350 520 320 520 300C520 280 500 260 480 260C460 260 440 280 440 300C440 320 460 340 460 340L420 380L380 340C380 340 400 320 400 300C400 280 380 260 360 260C340 260 320 280 320 300C320 320 340 350 340 350L300 390L260 350C260 350 280 330 280 310C280 290 260 270 240 270C220 270 200 290 200 310C200 330 220 360 220 360L260 400L220 440C220 440 200 460 200 480C200 500 220 520 240 520C260 520 280 500 280 480C280 460 260 440 260 440L300 400L340 440C340 440 320 460 320 480C320 500 340 520 360 520C380 520 400 500 400 480C400 460 380 440 380 440L420 400L460 440C460 440 440 460 440 480C440 500 460 520 480 520C500 520 520 500 520 480C520 460 500 440 500 440L460 400L500 360V350Z" fill="#333333"/>
</svg>